<svg width="260.125" height="253.422" viewBox="0 0 243.86717 237.58329" xmlns="http://www.w3.org/2000/svg"><title>ripsecrets logo</title><defs><clipPath id="a"><path d="M5.001-2.501h870.199v847.694h-870.199z"/></clipPath></defs><g><path d="M111.499 196.651c-22.852 3.041-40.172 14.456-38.696 25.496 1.454 11.04 21.155 17.541 44.006 14.5 22.83-3.019 40.15-14.434 38.696-25.496-1.476-11.04-21.177-17.519-44.006-14.5z" clip-path="url(#a)" fill="#ba752d" fill-rule="evenodd"/><path d="M170.142 189.86c-26.795 3.551-47.283 15.658-45.761 27.038 1.5 11.358 24.435 17.709 51.231 14.137 26.795-3.551 47.283-15.658 45.761-27.016-1.5-11.38-24.435-17.709-51.231-14.159z" fill="#ba752d" fill-rule="evenodd"/><path d="M31.005 169.968c-7.145 12.725.11 30.412 16.253 39.476 16.121 9.086 34.999 6.131 42.167-6.594 7.168-12.725-.088-30.412-16.231-39.498-16.121-9.086-35.021-6.131-42.189 6.616z" fill="#ba752d" fill-rule="evenodd"/><path d="M99.636 148.509c-20.355 3.44-35.264 15.504-33.323 26.927 1.919 11.446 19.98 17.93 40.314 14.489 20.334-3.44 35.264-15.504 33.323-26.927-1.941-11.446-19.981-17.93-40.314-14.489z" fill="#ba752d" fill-rule="evenodd"/><path d="M208.515 169.416c-19.54 0-35.374 8.226-35.374 18.371 0 10.145 15.834 18.371 35.374 18.371 19.517 0 35.352-8.226 35.352-18.371 0-10.144-15.835-18.371-35.352-18.371z" fill="#ba752d" fill-rule="evenodd"/><path d="M172.039 154.574c-29.309 0-53.083 7.432-53.083 16.584 0 9.174 23.774 16.606 53.083 16.606 29.331 0 53.083-7.432 53.083-16.606 0-9.152-23.752-16.584-53.083-16.584z" fill="#ba752d" fill-rule="evenodd"/><path d="M26.858 183.584c-16.263 2.16-28.25 13.134-26.73 24.482 1.498 11.371 15.932 18.819 32.195 16.659 16.285-2.16 28.25-13.112 26.752-24.482-1.521-11.371-15.932-18.819-32.217-16.659z" clip-path="url(#a)" fill="#ba752d" fill-rule="evenodd"/><path d="M57.073 203.114c-18.084 2.404-31.801 11.49-30.633 20.267 1.169 8.799 16.783 13.982 34.867 11.578 18.084-2.404 31.801-11.468 30.633-20.267-1.169-8.799-16.783-13.982-34.867-11.578z" fill="#ba752d" fill-rule="evenodd"/><path d="M110.663 167.277c-53.767 10.85-94.853 32.088-91.765 47.415 3.11 15.349 49.202 18.988 102.969 8.116 53.767-10.85 94.853-32.066 91.765-47.415-3.11-15.327-49.202-18.966-102.969-8.116z" fill="#ba752d" fill-rule="evenodd"/><path d="M100.805 154.023l-38.837 35.727 7.542 8.204 38.837-35.727z" fill="#808080" fill-rule="evenodd"/><path d="M62.145 37.138v152.435h115.958v-152.435z" fill="#808080" fill-rule="evenodd"/><path d="M120.124 0c-32.022 0-57.979 15.614-57.979 34.867 0 19.253 25.957 34.845 57.979 34.845s57.979-15.592 57.979-34.845-25.957-34.867-57.979-34.867z" fill="#808080" fill-rule="evenodd"/><path d="M68.982 45.276v152.435h115.958v-152.435z" fill="#a6a6a6" fill-rule="evenodd"/><path d="M126.961 8.16c-32.022 0-57.979 15.592-57.979 34.845s25.957 34.845 57.979 34.845 57.979-15.592 57.979-34.845-25.957-34.845-57.979-34.845z" fill="#a6a6a6" fill-rule="evenodd"/><path d="M82.92 165.711c1.147-4.19 1.389-3.286 1.191 1.544-.176 4.83-.088 20.576-2.316 27.435-2.228 6.837-10.321 14.048-11.071 13.673-.75-.353 4.256-8.667 6.528-15.879 2.272-7.234 4.521-22.561 5.668-26.773z" fill="#3eb319" fill-rule="evenodd"/><path d="M67.592 206.819c-.11 4.367-.551 3.529-1.522-1.191-.97-4.742-4.83-20.003-4.301-27.192.529-7.19 6.66-16.121 7.498-15.945.816.176-2.073 9.439-2.558 17.003-.485 7.542.993 22.98.882 27.324z" fill="#3eb319" fill-rule="evenodd"/><path d="M77.12 169.306c.926-3.793.926-2.845.331 1.786-.595 4.609-2.272 19.87-3.926 25.935-1.676 6.065-5.778 10.983-6.065 10.454-.265-.551 2.713-7.322 4.433-13.717 1.72-6.417 4.301-20.686 5.227-24.457z" fill="#3eb319" fill-rule="evenodd"/><path d="M63.203 200.6c.816 3.859.353 3.043-1.213-1.367-1.566-4.411-7.057-18.79-8.16-25.097-1.125-6.285.926-12.99 1.477-12.681.551.331.595 7.984 1.83 14.622 1.213 6.638 5.249 20.664 6.065 24.523z" fill="#3eb319" fill-rule="evenodd"/><path d="M65.696 204.482c-1.125 3.837-1.169 2.889-.529-1.764.618-4.653 2.294-20.003 4.345-26.156 2.051-6.153 7.542-11.314 7.939-10.784.397.529-3.441 7.476-5.536 13.982-2.117 6.506-5.094 20.907-6.219 24.722z" fill="#3eb319" fill-rule="evenodd"/><path d="M83.978 205.452c-1.522 3.903-1.61 2.977-.794-1.742.816-4.698 2.889-20.157 5.668-26.465 2.801-6.307 10.52-11.865 11.115-11.38.573.507-4.742 7.719-7.609 14.379-2.889 6.66-6.859 21.304-8.38 25.207z" fill="#3eb319" fill-rule="evenodd"/><path d="M212.992 152.192c-.176 1.213-.287 8.469 0 11.865.265 3.396 1.455 6.594 1.632 8.491.177 1.897-.772 2.955-.573 2.911.22-.022 1.654-1.456 1.83-3.066.198-1.632-.353-4.08-.662-6.682-.309-2.602-.816-6.704-1.169-8.909-.353-2.183-.882-5.822-1.059-4.609z" fill="#3eb319" fill-rule="evenodd"/><path d="M206.596 174.577c.044-1.235-.684-8.469-1.323-11.799-.662-3.352-2.228-6.395-2.624-8.248-.375-1.875.485-3.021.265-2.955-.199.044-1.5 1.632-1.5 3.264-.022 1.632.816 4.014 1.433 6.55.595 2.536 1.544 6.572 2.161 8.711.595 2.139 1.544 5.69 1.588 4.477z" fill="#3eb319" fill-rule="evenodd"/><path d="M211.272 151.663c-.551 1.059-2.757 6.903-3.286 10.718-.507 3.793-.088 10.1.154 12.085.243 1.985 1.125 1.257 1.345-.198.221-1.456-.309-5.491 0-8.535.287-3.021 1.456-7.432 1.786-9.704.309-2.294.529-5.425 0-4.367z" fill="#3eb319" fill-rule="evenodd"/><path d="M211.823 175.04c.11-1.213.044-7.586-.816-11.424-.86-3.837-3.462-9.792-4.367-11.644-.926-1.83-1.456-.838-1.147.64.309 1.477 2.206 5.204 2.999 8.226.794 3.043 1.279 7.675 1.786 9.968.507 2.316 1.411 5.425 1.544 4.234z" fill="#3eb319" fill-rule="evenodd"/><path d="M214.029 174.488c-.287 2.073 0 1.698.816-.485.816-2.205 3.771-9.219 4.08-12.681.287-3.44-1.897-8.05-2.294-8.028-.397.044.265 4.609-.11 8.248-.353 3.617-2.206 10.851-2.492 12.946z" fill="#3eb319" fill-rule="evenodd"/><path d="M175.148 208.231c-1.985 3.33-1.985 2.492-.706-1.566 1.279-4.058 4.808-17.444 8.358-22.76 3.529-5.315 12.284-9.637 12.88-9.152.573.463-5.756 6.395-9.395 12.019-3.661 5.624-9.174 18.15-11.137 21.458z" fill="#3eb319" fill-rule="evenodd"/><path d="M166.701 172.724c.044-3.859.463-3.132 1.389 1.014.926 4.146 4.543 17.511 4.146 23.884-.397 6.373-5.822 14.511-6.572 14.379-.75-.132 1.764-8.424 2.117-15.129.353-6.704-1.125-20.289-1.081-24.149z" fill="#3eb319" fill-rule="evenodd"/><path d="M172.612 209.532c-.838 3.33-.838 2.492-.287-1.566.551-4.058 2.051-17.444 3.573-22.759 1.499-5.315 5.249-9.638 5.491-9.152.243.463-2.448 6.396-4.014 12.019-1.566 5.646-3.903 18.15-4.764 21.458z" fill="#3eb319" fill-rule="evenodd"/><path d="M157.946 175.018c-.772-3.374-.353-2.646 1.103 1.191 1.456 3.837 6.572 16.364 7.631 21.877 1.081 5.536-.706 11.534-1.213 11.269-.485-.265-.618-7.035-1.786-12.857-1.169-5.822-4.962-18.084-5.734-21.48z" fill="#3eb319" fill-rule="evenodd"/><path d="M154.616 178.149c-1.147-3.132-1.301-2.448-.882 1.191.419 3.617 1.213 15.482 3.396 20.576 2.183 5.116 9.108 10.299 9.704 10.012.595-.309-3.926-6.418-6.153-11.799-2.227-5.359-4.896-16.849-6.065-19.98z" fill="#3eb319" fill-rule="evenodd"/><g style="line-height:1.25;text-align:center" font-size="21.197" text-anchor="middle" fill="#333" font-family="Liberation Serif"><path d="M113.338 26.001v3.721l1.487.198v.388h-4.065v-.388l1.165-.198v-8.657l-1.26-.19v-.388h4.241q1.846 0 2.725.623t.879 2q0 .981-.535 1.699-.535.71-1.479.989l2.659 3.926 1.062.198v.388h-2.351l-2.761-4.307zm3.713-2.791q0-1.121-.549-1.589-.542-.476-1.912-.476h-1.252v4.197h1.296q1.311 0 1.86-.483.557-.491.557-1.648z" style="-inkscape-font-specification:'Liberation Serif'" font-size="15"/><path d="M122.998 29.634q0 .359-.256.623-.249.264-.63.264t-.637-.264q-.249-.264-.249-.623 0-.374.256-.63t.63-.256q.374 0 .63.256t.256.63z" style="-inkscape-font-specification:'Liberation Serif'" font-size="15"/><path d="M127.195 29.722l1.26.198v.388h-3.926v-.388l1.26-.198v-8.657l-1.26-.19v-.388h3.926v.388l-1.26.19z" style="-inkscape-font-specification:'Liberation Serif'" font-size="15"/><path d="M131.743 29.634q0 .359-.256.623-.249.264-.63.264t-.637-.264q-.249-.264-.249-.623 0-.374.256-.63t.63-.256q.374 0 .63.256t.256.63z" style="-inkscape-font-specification:'Liberation Serif'" font-size="15"/><path d="M139.016 23.394q0-1.208-.564-1.729-.564-.52-1.897-.52h-.718v4.651h.762q1.238 0 1.824-.564.593-.564.593-1.838zm-3.179 3.062v3.267l1.56.198v.388h-4.138v-.388l1.165-.198v-8.657l-1.26-.19v-.388h3.706q3.604 0 3.604 2.893 0 1.509-.916 2.292-.908.784-2.615.784z" style="-inkscape-font-specification:'Liberation Serif'" font-size="15"/><path d="M142.173 29.634q0 .359-.256.623-.249.264-.63.264t-.637-.264q-.249-.264-.249-.623 0-.374.256-.63t.63-.256q.374 0 .63.256t.256.63z" style="-inkscape-font-specification:'Liberation Serif'" font-size="15"/><path d="M82.787 53.069h.673l.362 1.873q.383.486 1.314.859.942.373 1.853.373 1.449 0 2.256-.735.818-.745.818-2.049 0-.745-.321-1.232-.31-.486-.828-.818-.507-.342-1.159-.569-.652-.238-1.346-.476-.683-.238-1.335-.528-.652-.29-1.17-.735-.507-.445-.828-1.097-.311-.662-.311-1.625 0-1.656 1.242-2.598t3.447-.942q1.677 0 3.643.445v2.888h-.673l-.362-1.697q-1.056-.766-2.608-.766-1.387 0-2.174.569-.776.559-.776 1.553 0 .673.31 1.118.321.445.828.766.518.311 1.17.538.662.228 1.346.476.693.238 1.346.549.662.3 1.17.776.517.466.828 1.149.321.673.321 1.666 0 2.008-1.232 3.115-1.232 1.097-3.55 1.097-1.118 0-2.246-.197t-2.008-.538z" style="-inkscape-font-specification:'Liberation Serif'"/><path d="M93.747 56.256l1.78-.279v-12.234l-1.78-.269v-.549h10.412v3.322h-.683l-.331-2.246q-1.159-.145-3.353-.145h-2.267v5.423h3.747l.321-1.656h.662v4.264h-.662l-.321-1.677h-3.747v5.662h2.732q2.67 0 3.498-.166l.59-2.567h.683l-.197 3.664h-11.085z" style="-inkscape-font-specification:'Liberation Serif'"/><path d="M114.096 57.012q-3.374 0-5.258-1.832-1.884-1.842-1.884-5.154 0-3.581 1.811-5.413 1.811-1.842 5.372-1.842 2.163 0 4.647.528l.062 3.033h-.683l-.311-1.801q-.725-.445-1.687-.683-.952-.248-1.946-.248-2.66 0-3.881 1.563-1.221 1.563-1.221 4.844 0 3.022 1.273 4.616 1.283 1.594 3.726 1.594 1.18 0 2.225-.279 1.045-.29 1.656-.766l.383-2.07h.673l-.062 3.26q-2.277.652-4.896.652z" style="-inkscape-font-specification:'Liberation Serif'"/><path d="M124.611 50.719v5.258l2.101.279v.549h-5.744v-.549l1.646-.279v-12.234l-1.78-.269v-.549h5.993q2.608 0 3.85.88t1.242 2.826q0 1.387-.756 2.401-.756 1.004-2.091 1.397l3.757 5.548 1.501.279v.549h-3.322l-3.902-6.086zm5.247-3.943q0-1.584-.776-2.246-.766-.673-2.701-.673h-1.77v5.931h1.832q1.853 0 2.629-.683.787-.693.787-2.329z" style="-inkscape-font-specification:'Liberation Serif'"/><path d="M134.972 56.256l1.78-.279v-12.234l-1.78-.269v-.549h10.412v3.322h-.683l-.331-2.246q-1.159-.145-3.353-.145h-2.267v5.423h3.747l.321-1.656h.662v4.264h-.662l-.321-1.677h-3.747v5.662h2.732q2.67 0 3.498-.166l.59-2.567h.683l-.197 3.664h-11.085z" style="-inkscape-font-specification:'Liberation Serif'"/><path d="M150.57 56.805v-.549l2.205-.279v-12.161h-.528q-2.619 0-3.581.207l-.279 2.163h-.693v-3.26h12.213v3.26h-.704l-.279-2.163q-.31-.072-1.356-.124-1.045-.062-2.287-.062h-.507v12.141l2.205.279v.549z" style="-inkscape-font-specification:'Liberation Serif'"/><path d="M161.696 53.069h.673l.362 1.873q.383.486 1.314.859.942.373 1.853.373 1.449 0 2.256-.735.818-.745.818-2.049 0-.745-.321-1.232-.31-.486-.828-.818-.507-.342-1.159-.569-.652-.238-1.346-.476-.683-.238-1.335-.528-.652-.29-1.17-.735-.507-.445-.828-1.097-.311-.662-.311-1.625 0-1.656 1.242-2.598t3.447-.942q1.677 0 3.643.445v2.888h-.673l-.362-1.697q-1.056-.766-2.608-.766-1.387 0-2.174.569-.776.559-.776 1.553 0 .673.31 1.118.321.445.828.766.518.311 1.17.538.662.228 1.346.476.693.238 1.346.549.662.3 1.17.776.517.466.828 1.149.321.673.321 1.666 0 2.008-1.232 3.115-1.232 1.097-3.55 1.097-1.118 0-2.246-.197t-2.008-.538z" style="-inkscape-font-specification:'Liberation Serif'"/><path d="M98.792 83.188l2.007.198v.388h-5.281v-.388l2.014-.198v-8.013l-1.985.71v-.388l2.864-1.626h.381z" style="-inkscape-font-specification:'Liberation Serif'" font-size="15"/><path d="M102.183 76.948q0-1.479.828-2.292.828-.813 2.336-.813 1.677 0 2.454 1.208.784 1.208.784 3.787 0 2.468-1.003 3.779-1.003 1.304-2.82 1.304-1.194 0-2.19-.249v-1.699h.476l.256 1.055q.234.11.63.198.396.088.798.088 1.172 0 1.802-1.025.63-1.033.696-3.032-1.113.623-2.263.623-1.296 0-2.043-.769-.74-.776-.74-2.161zm3.179-2.52q-1.831 0-1.831 2.549 0 1.121.439 1.655.439.535 1.362.535.945 0 1.904-.388 0-2.249-.447-3.296-.439-1.055-1.428-1.055z" style="-inkscape-font-specification:'Liberation Serif'" font-size="15"/><path d="M110.672 76.274h-.483v-2.322h6.079v.564l-4.38 9.258h-.945l4.299-8.701h-4.314z" style="-inkscape-font-specification:'Liberation Serif'" font-size="15"/><path d="M123.628 78.823q0 5.098-3.223 5.098-1.553 0-2.344-1.304-.791-1.304-.791-3.794 0-2.439.791-3.728.791-1.296 2.402-1.296 1.553 0 2.358 1.282.806 1.274.806 3.743zm-1.348 0q0-2.358-.447-3.398t-1.428-1.04q-.952 0-1.37.981-.417.981-.417 3.457 0 2.49.425 3.508.425 1.011 1.362 1.011.967 0 1.421-1.062.454-1.069.454-3.457z" style="-inkscape-font-specification:'Liberation Serif'" font-size="15"/><path d="M124.756 80.8v-1.121h3.896v1.121z" style="-inkscape-font-specification:'Liberation Serif'" font-size="15"/><path d="M135.867 83.774h-6.013v-1.077l1.362-1.238q1.311-1.15 1.926-1.86.615-.71.879-1.465.271-.754.271-1.729 0-.952-.432-1.45t-1.414-.498q-.388 0-.798.11-.41.103-.725.278l-.256 1.201h-.483v-1.89q1.333-.315 2.263-.315 1.611 0 2.417.674.813.667.813 1.89 0 .82-.322 1.553-.315.725-.974 1.45-.659.718-2.183 2.014-.652.557-1.384 1.223h5.054z" style="-inkscape-font-specification:'Liberation Serif'" font-size="15"/><path d="M143.623 78.823q0 5.098-3.223 5.098-1.553 0-2.344-1.304-.791-1.304-.791-3.794 0-2.439.791-3.728.791-1.296 2.402-1.296 1.553 0 2.358 1.282.806 1.274.806 3.743zm-1.348 0q0-2.358-.447-3.398t-1.428-1.04q-.952 0-1.37.981-.417.981-.417 3.457 0 2.49.425 3.508.425 1.011 1.362 1.011.967 0 1.421-1.062.454-1.069.454-3.457z" style="-inkscape-font-specification:'Liberation Serif'" font-size="15"/><path d="M150.867 83.774h-6.013v-1.077l1.362-1.238q1.311-1.15 1.926-1.86.615-.71.879-1.465.271-.754.271-1.729 0-.952-.432-1.45t-1.414-.498q-.388 0-.798.11-.41.103-.725.278l-.256 1.201h-.483v-1.89q1.333-.315 2.263-.315 1.611 0 2.417.674.813.667.813 1.89 0 .82-.322 1.553-.315.725-.974 1.45-.659.718-2.183 2.014-.652.557-1.384 1.223h5.054z" style="-inkscape-font-specification:'Liberation Serif'" font-size="15"/><path d="M158.367 83.774h-6.013v-1.077l1.362-1.238q1.311-1.15 1.926-1.86.615-.71.879-1.465.271-.754.271-1.729 0-.952-.432-1.45t-1.414-.498q-.388 0-.798.11-.41.103-.725.278l-.256 1.201h-.483v-1.89q1.333-.315 2.263-.315 1.611 0 2.417.674.813.667.813 1.89 0 .82-.322 1.553-.315.725-.974 1.45-.659.718-2.183 2.014-.652.557-1.384 1.223h5.054z" style="-inkscape-font-specification:'Liberation Serif'" font-size="15"/><path d="M86.885 130.201q0-2.908-1.573-4.409-1.563-1.501-4.471-1.501h-1.863v11.975q1.242.083 2.95.083 2.546 0 3.747-1.501 1.211-1.501 1.211-4.647zm-5.382-6.841q3.84 0 5.693 1.718 1.853 1.708 1.853 5.144 0 3.478-1.791 5.268-1.78 1.791-5.33 1.791l-4.947-.041h-1.78v-.549l1.78-.279v-12.234l-1.78-.269v-.549z" style="-inkscape-font-specification:'Liberation Serif'"/><path d="M90.508 136.69l1.78-.279v-12.234l-1.78-.269v-.549h10.412v3.322h-.683l-.331-2.246q-1.159-.145-3.353-.145h-2.267v5.423h3.747l.321-1.656h.662v4.264h-.662l-.321-1.677h-3.747v5.662h2.732q2.67 0 3.498-.166l.59-2.567h.683l-.197 3.664h-11.085z" style="-inkscape-font-specification:'Liberation Serif'"/><path d="M107.617 136.69v.549h-4.564v-.549l1.573-.279 4.73-13.165h1.967l4.916 13.165 1.76.279v.549h-5.869v-.549l1.863-.279-1.377-4.005h-5.465l-1.397 4.005zm2.225-11.954l-2.381 6.738h4.833z" style="-inkscape-font-specification:'Liberation Serif'"/><path d="M119.064 137.239v-.549l2.205-.279v-12.161h-.528q-2.619 0-3.581.207l-.279 2.163h-.693v-3.26h12.213v3.26h-.704l-.279-2.163q-.31-.072-1.356-.124-1.045-.062-2.287-.062h-.507v12.141l2.205.279v.549z" style="-inkscape-font-specification:'Liberation Serif'"/><path d="M129.362 137.239v-.549l1.78-.279v-12.234l-1.78-.269v-.549h5.558v.549l-1.78.269v5.455h6.531v-5.455l-1.78-.269v-.549h5.548v.549l-1.78.269v12.234l1.78.279v.549h-5.548v-.549l1.78-.279v-5.848h-6.531v5.848l1.78.279v.549z" style="-inkscape-font-specification:'Liberation Serif'"/><path d="M159.274 126.723q0-1.273-.797-1.853-.797-.58-2.588-.58h-2.142v5.247h2.267q1.677 0 2.463-.662.797-.662.797-2.153zm1.045 6.562q0-1.459-.973-2.132-.973-.683-3.115-.683h-2.484v5.837q1.428.062 3.043.062 1.77 0 2.65-.745.88-.756.88-2.339zm-10.35 3.954v-.549l1.78-.279v-12.234l-1.78-.269v-.549h6.345q2.639 0 3.861.787 1.221.776 1.221 2.474 0 1.221-.756 2.08-.745.859-2.101 1.149 1.873.197 2.898 1.097 1.025.89 1.025 2.298 0 1.998-1.387 3.033-1.377 1.025-4.026 1.025l-4.43-.062z" style="-inkscape-font-specification:'Liberation Serif'"/><path d="M172.17 131.774v4.637l2.205.279v.549h-6.407v-.549l2.205-.279v-4.575l-4.875-7.659-1.563-.269v-.549h5.869v.549l-1.863.269 3.985 6.407 3.788-6.407-1.76-.269v-.549h4.513v.549l-1.521.269z" style="-inkscape-font-specification:'Liberation Serif'"/><path d="M72.54 163.658l1.78-.279v-12.234l-1.78-.269v-.549h10.412v3.322h-.683l-.331-2.246q-1.159-.145-3.353-.145h-2.267v5.423h3.747l.321-1.656h.662v4.264h-.662l-.321-1.677h-3.747v5.662h2.732q2.67 0 3.498-.166l.59-2.567h.683l-.197 3.664h-11.085z" style="-inkscape-font-specification:'Liberation Serif'"/><path d="M88.158 163.379l1.718.279v.549h-4.533v-.549l1.532-.279 4.72-6.272-4.026-5.962-1.563-.269v-.549h5.724v.549l-1.76.269 2.877 4.285 3.219-4.285-1.718-.269v-.549h4.544v.549l-1.532.269-3.902 5.196 4.771 7.038 1.573.279v.549h-5.724v-.549l1.76-.279-3.643-5.382z" style="-inkscape-font-specification:'Liberation Serif'"/><path d="M109.066 154.437q0-1.708-.797-2.443-.797-.735-2.681-.735h-1.014v6.572h1.076q1.749 0 2.577-.797.838-.797.838-2.598zm-4.492 4.326v4.616l2.205.279v.549h-5.848v-.549l1.646-.279v-12.234l-1.78-.269v-.549h5.237q5.092 0 5.092 4.088 0 2.132-1.294 3.24-1.283 1.107-3.695 1.107z" style="-inkscape-font-specification:'Liberation Serif'"/><path d="M115.007 157.252q0 3.343 1.118 4.844 1.118 1.501 3.498 1.501 2.37 0 3.498-1.501 1.128-1.501 1.128-4.844 0-3.322-1.128-4.782-1.118-1.47-3.498-1.47-2.391 0-3.509 1.47-1.107 1.459-1.107 4.782zm-2.163 0q0-7.079 6.779-7.079 3.353 0 5.072 1.801 1.718 1.791 1.718 5.279 0 3.54-1.739 5.351t-5.051 1.811q-3.302 0-5.04-1.801-1.739-1.811-1.739-5.361z" style="-inkscape-font-specification:'Liberation Serif'"/><path d="M128.72 160.471h.673l.362 1.873q.383.486 1.314.859.942.373 1.853.373 1.449 0 2.256-.735.818-.745.818-2.049 0-.745-.321-1.232-.31-.486-.828-.818-.507-.342-1.159-.569-.652-.238-1.346-.476-.683-.238-1.335-.528-.652-.29-1.17-.735-.507-.445-.828-1.097-.31-.662-.31-1.625 0-1.656 1.242-2.598t3.447-.942q1.677 0 3.643.445v2.888h-.673l-.362-1.697q-1.056-.766-2.608-.766-1.387 0-2.174.569-.776.559-.776 1.553 0 .673.311 1.118.321.445.828.766.518.311 1.17.538.662.228 1.346.476.693.238 1.346.549.662.3 1.17.776.518.466.828 1.149.321.673.321 1.666 0 2.008-1.232 3.115-1.232 1.097-3.55 1.097-1.118 0-2.246-.197t-2.008-.538z" style="-inkscape-font-specification:'Liberation Serif'"/><path d="M151.066 151.145l-1.863-.269v-.549h4.73v.549l-1.78.269v8.29q0 2.494-1.377 3.736-1.366 1.242-3.974 1.242-2.763 0-4.14-1.242-1.366-1.252-1.366-3.54v-8.487l-1.78-.269v-.549h5.548v.549l-1.78.269v8.332q0 3.778 3.674 3.778 1.987 0 3.043-.942 1.066-.942 1.066-2.795z" style="-inkscape-font-specification:'Liberation Serif'"/><path d="M158.767 158.121v5.258l2.101.279v.549h-5.744v-.549l1.646-.279v-12.234l-1.78-.269v-.549h5.993q2.608 0 3.85.88t1.242 2.826q0 1.387-.756 2.401-.756 1.004-2.091 1.397l3.757 5.548 1.501.279v.549h-3.322l-3.902-6.086zm5.247-3.943q0-1.584-.776-2.246-.766-.673-2.701-.673h-1.77v5.931h1.832q1.853 0 2.629-.683.787-.693.787-2.329z" style="-inkscape-font-specification:'Liberation Serif'"/><path d="M169.127 163.658l1.78-.279v-12.234l-1.78-.269v-.549h10.412v3.322h-.683l-.331-2.246q-1.159-.145-3.353-.145h-2.267v5.423h3.747l.321-1.656h.662v4.264h-.662l-.321-1.677h-3.747v5.662h2.732q2.67 0 3.498-.166l.59-2.567h.683l-.197 3.664h-11.085z" style="-inkscape-font-specification:'Liberation Serif'"/></g></g></svg>