<svg width="260.125" height="253.422" viewBox="0 0 243.86717 237.58329" xmlns="http://www.w3.org/2000/svg"><title>ripsecrets logo</title><defs><clipPath id="a"><path d="M5.001-2.501h870.199v847.694h-870.199z"/></clipPath></defs><g><path d="M111.499 196.651c-22.852 3.041-40.172 14.456-38.696 25.496 1.454 11.04 21.155 17.541 44.006 14.5 22.83-3.019 40.15-14.434 38.696-25.496-1.476-11.04-21.177-17.519-44.006-14.5z" clip-path="url(#a)" fill="#ba752d" fill-rule="evenodd"/><path d="M170.142 189.86c-26.795 3.551-47.283 15.658-45.761 27.038 1.5 11.358 24.435 17.709 51.231 14.137 26.795-3.551 47.283-15.658 45.761-27.016-1.5-11.38-24.435-17.709-51.231-14.159z" fill="#ba752d" fill-rule="evenodd"/><path d="M31.005 169.968c-7.145 12.725.11 30.412 16.253 39.476 16.121 9.086 34.999 6.131 42.167-6.594 7.168-12.725-.088-30.412-16.231-39.498-16.121-9.086-35.021-6.131-42.189 6.616z" fill="#ba752d" fill-rule="evenodd"/><path d="M99.636 148.509c-20.355 3.44-35.264 15.504-33.323 26.927 1.919 11.446 19.98 17.93 40.314 14.489 20.334-3.44 35.264-15.504 33.323-26.927-1.941-11.446-19.981-17.93-40.314-14.489z" fill="#ba752d" fill-rule="evenodd"/><path d="M208.515 169.416c-19.54 0-35.374 8.226-35.374 18.371 0 10.145 15.834 18.371 35.374 18.371 19.517 0 35.352-8.226 35.352-18.371 0-10.144-15.835-18.371-35.352-18.371z" fill="#ba752d" fill-rule="evenodd"/><path d="M172.039 154.574c-29.309 0-53.083 7.432-53.083 16.584 0 9.174 23.774 16.606 53.083 16.606 29.331 0 53.083-7.432 53.083-16.606 0-9.152-23.752-16.584-53.083-16.584z" fill="#ba752d" fill-rule="evenodd"/><path d="M26.858 183.584c-16.263 2.16-28.25 13.134-26.73 24.482 1.498 11.371 15.932 18.819 32.195 16.659 16.285-2.16 28.25-13.112 26.752-24.482-1.521-11.371-15.932-18.819-32.217-16.659z" clip-path="url(#a)" fill="#ba752d" fill-rule="evenodd"/><path d="M57.073 203.114c-18.084 2.404-31.801 11.49-30.633 20.267 1.169 8.799 16.783 13.982 34.867 11.578 18.084-2.404 31.801-11.468 30.633-20.267-1.169-8.799-16.783-13.982-34.867-11.578z" fill="#ba752d" fill-rule="evenodd"/><path d="M110.663 167.277c-53.767 10.85-94.853 32.088-91.765 47.415 3.11 15.349 49.202 18.988 102.969 8.116 53.767-10.85 94.853-32.066 91.765-47.415-3.11-15.327-49.202-18.966-102.969-8.116z" fill="#ba752d" fill-rule="evenodd"/><path d="M100.805 154.023l-38.837 35.727 7.542 8.204 38.837-35.727z" fill="#808080" fill-rule="evenodd"/><path d="M62.145 37.138v152.435h115.958v-152.435z" fill="#808080" fill-rule="evenodd"/><path d="M120.124 0c-32.022 0-57.979 15.614-57.979 34.867 0 19.253 25.957 34.845 57.979 34.845s57.979-15.592 57.979-34.845-25.957-34.867-57.979-34.867z" fill="#808080" fill-rule="evenodd"/><path d="M68.982 45.276v152.435h115.958v-152.435z" fill="#a6a6a6" fill-rule="evenodd"/><path d="M126.961 8.16c-32.022 0-57.979 15.592-57.979 34.845s25.957 34.845 57.979 34.845 57.979-15.592 57.979-34.845-25.957-34.845-57.979-34.845z" fill="#a6a6a6" fill-rule="evenodd"/><path d="M82.92 165.711c1.147-4.19 1.389-3.286 1.191 1.544-.176 4.83-.088 20.576-2.316 27.435-2.228 6.837-10.321 14.048-11.071 13.673-.75-.353 4.256-8.667 6.528-15.879 2.272-7.234 4.521-22.561 5.668-26.773z" fill="#3eb319" fill-rule="evenodd"/><path d="M67.592 206.819c-.11 4.367-.551 3.529-1.522-1.191-.97-4.742-4.83-20.003-4.301-27.192.529-7.19 6.66-16.121 7.498-15.945.816.176-2.073 9.439-2.558 17.003-.485 7.542.993 22.98.882 27.324z" fill="#3eb319" fill-rule="evenodd"/><path d="M77.12 169.306c.926-3.793.926-2.845.331 1.786-.595 4.609-2.272 19.87-3.926 25.935-1.676 6.065-5.778 10.983-6.065 10.454-.265-.551 2.713-7.322 4.433-13.717 1.72-6.417 4.301-20.686 5.227-24.457z" fill="#3eb319" fill-rule="evenodd"/><path d="M63.203 200.6c.816 3.859.353 3.043-1.213-1.367-1.566-4.411-7.057-18.79-8.16-25.097-1.125-6.285.926-12.99 1.477-12.681.551.331.595 7.984 1.83 14.622 1.213 6.638 5.249 20.664 6.065 24.523z" fill="#3eb319" fill-rule="evenodd"/><path d="M65.696 204.482c-1.125 3.837-1.169 2.889-.529-1.764.618-4.653 2.294-20.003 4.345-26.156 2.051-6.153 7.542-11.314 7.939-10.784.397.529-3.441 7.476-5.536 13.982-2.117 6.506-5.094 20.907-6.219 24.722z" fill="#3eb319" fill-rule="evenodd"/><path d="M83.978 205.452c-1.522 3.903-1.61 2.977-.794-1.742.816-4.698 2.889-20.157 5.668-26.465 2.801-6.307 10.52-11.865 11.115-11.38.573.507-4.742 7.719-7.609 14.379-2.889 6.66-6.859 21.304-8.38 25.207z" fill="#3eb319" fill-rule="evenodd"/><path d="M212.992 152.192c-.176 1.213-.287 8.469 0 11.865.265 3.396 1.455 6.594 1.632 8.491.177 1.897-.772 2.955-.573 2.911.22-.022 1.654-1.456 1.83-3.066.198-1.632-.353-4.08-.662-6.682-.309-2.602-.816-6.704-1.169-8.909-.353-2.183-.882-5.822-1.059-4.609z" fill="#3eb319" fill-rule="evenodd"/><path d="M206.596 174.577c.044-1.235-.684-8.469-1.323-11.799-.662-3.352-2.228-6.395-2.624-8.248-.375-1.875.485-3.021.265-2.955-.199.044-1.5 1.632-1.5 3.264-.022 1.632.816 4.014 1.433 6.55.595 2.536 1.544 6.572 2.161 8.711.595 2.139 1.544 5.69 1.588 4.477z" fill="#3eb319" fill-rule="evenodd"/><path d="M211.272 151.663c-.551 1.059-2.757 6.903-3.286 10.718-.507 3.793-.088 10.1.154 12.085.243 1.985 1.125 1.257 1.345-.198.221-1.456-.309-5.491 0-8.535.287-3.021 1.456-7.432 1.786-9.704.309-2.294.529-5.425 0-4.367z" fill="#3eb319" fill-rule="evenodd"/><path d="M211.823 175.04c.11-1.213.044-7.586-.816-11.424-.86-3.837-3.462-9.792-4.367-11.644-.926-1.83-1.456-.838-1.147.64.309 1.477 2.206 5.204 2.999 8.226.794 3.043 1.279 7.675 1.786 9.968.507 2.316 1.411 5.425 1.544 4.234z" fill="#3eb319" fill-rule="evenodd"/><path d="M214.029 174.488c-.287 2.073 0 1.698.816-.485.816-2.205 3.771-9.219 4.08-12.681.287-3.44-1.897-8.05-2.294-8.028-.397.044.265 4.609-.11 8.248-.353 3.617-2.206 10.851-2.492 12.946z" fill="#3eb319" fill-rule="evenodd"/><path d="M175.148 208.231c-1.985 3.33-1.985 2.492-.706-1.566 1.279-4.058 4.808-17.444 8.358-22.76 3.529-5.315 12.284-9.637 12.88-9.152.573.463-5.756 6.395-9.395 12.019-3.661 5.624-9.174 18.15-11.137 21.458z" fill="#3eb319" fill-rule="evenodd"/><path d="M166.701 172.724c.044-3.859.463-3.132 1.389 1.014.926 4.146 4.543 17.511 4.146 23.884-.397 6.373-5.822 14.511-6.572 14.379-.75-.132 1.764-8.424 2.117-15.129.353-6.704-1.125-20.289-1.081-24.149z" fill="#3eb319" fill-rule="evenodd"/><path d="M172.612 209.532c-.838 3.33-.838 2.492-.287-1.566.551-4.058 2.051-17.444 3.573-22.759 1.499-5.315 5.249-9.638 5.491-9.152.243.463-2.448 6.396-4.014 12.019-1.566 5.646-3.903 18.15-4.764 21.458z" fill="#3eb319" fill-rule="evenodd"/><path d="M157.946 175.018c-.772-3.374-.353-2.646 1.103 1.191 1.456 3.837 6.572 16.364 7.631 21.877 1.081 5.536-.706 11.534-1.213 11.269-.485-.265-.618-7.035-1.786-12.857-1.169-5.822-4.962-18.084-5.734-21.48z" fill="#3eb319" fill-rule="evenodd"/><path d="M154.616 178.149c-1.147-3.132-1.301-2.448-.882 1.191.419 3.617 1.213 15.482 3.396 20.576 2.183 5.116 9.108 10.299 9.704 10.012.595-.309-3.926-6.418-6.153-11.799-2.227-5.359-4.896-16.849-6.065-19.98z" fill="#3eb319" fill-rule="evenodd"/><text style="line-height:1.25;text-align:center" x="348.992" y="411.427" font-size="21.197" font-family="sans-serif" text-anchor="middle" fill="#333" transform="translate(-222.295 -381.119)"><tspan style="-inkscape-font-specification:'Liberation Serif';text-align:center" x="348.992" y="411.427" font-size="15" font-family="Liberation Serif" text-anchor="middle" fill="#333">R.I.P.</tspan><tspan style="-inkscape-font-specification:'Liberation Serif';text-align:center" x="348.992" y="437.924" font-family="Liberation Serif" text-anchor="middle" fill="#333">SECRETS</tspan><tspan style="-inkscape-font-specification:'Liberation Serif';text-align:center" x="348.992" y="464.893" font-size="15" font-family="Liberation Serif" text-anchor="middle" fill="#333">?-20XX</tspan><tspan style="-inkscape-font-specification:'Liberation Serif';text-align:center" x="348.992" y="518.358" font-family="Liberation Serif" text-anchor="middle" fill="#333">DEATH BY</tspan><tspan style="-inkscape-font-specification:'Liberation Serif';text-align:center" x="348.992" y="545.326" font-family="Liberation Serif" text-anchor="middle" fill="#333">EXPOSURE</tspan></text></g></svg>